<svg id="Capa_1" data-name="Capa 1" xmlns="http://www.w3.org/2000/svg" viewBox="0 0 187.45 210.66"><defs><style>.cls-1{fill:#fff;}</style></defs><title>Logo LS</title><path class="cls-1" d="M67.46,99.71l-9.66,1.47c-9.64,1.51-19.24,1.93-28.71-1.09a25.12,25.12,0,0,1-9-4.57c-5.32-4.55-5-11,.63-15.18A20.53,20.53,0,0,1,29,77.08l-.68,3.5a8.25,8.25,0,0,0,3.83,9A24.54,24.54,0,0,0,42.72,93.2a87.26,87.26,0,0,0,28.56-1,5,5,0,0,0,3.35-2.42c6.84-10.09,13.63-20.22,20.59-30.23,7.56-10.88,15.59-21.39,25.26-30.51,4.13-3.9,8.53-7.47,13.84-9.68,4.21-1.75,8.46-2.27,12.63.16,5.09,3,7.4,8.83,6.09,15.43s-4.53,12.47-8.55,17.81C131.37,70.17,115,83.44,94.6,91.59c-2.18.88-4.52,1.38-6.76,2.12a3.43,3.43,0,0,0-1.62,1c-7.43,9.42-15,18.74-23.52,27.19a3.51,3.51,0,0,0-.24.56L101.41,116c0-.15.07-.28,0-.33-3.58-3.81-2.91-8-1-12.2,2.2-4.77,5.84-8.45,9.81-11.77,11.77-9.86,24.89-17.19,40-20.41a34.94,34.94,0,0,1,10.41-.51c8.81.85,11.58,7.07,10.16,14.53a15.52,15.52,0,0,1-2.65,6A56.45,56.45,0,0,1,148,108.39c-2.93,1.49-6,2.4-9.39,1.64-4.15-.93-6-4.23-4.68-8.26,1.13-3.34,3.66-5.45,6.61-7.63-.16,2.45-.3,4.62-.46,7.11a28.83,28.83,0,0,0,2.8-.92,51.37,51.37,0,0,0,18.6-14.21,15.76,15.76,0,0,0,2.26-4c.82-2,.06-3.48-2-4.28a11.76,11.76,0,0,0-6.7-.18c-5.41,1.1-10.32,3.48-15.09,6.13A120,120,0,0,0,119,98.22a77.2,77.2,0,0,0-6.39,6.88,7.83,7.83,0,0,0-1.09,1.86c-1.46,3-.89,5.12,2.28,6.33a43.92,43.92,0,0,0,9.34,2.47c6.67.94,13.4,1.46,20.08,2.28,5,.61,9.85,1.72,14.2,4.38,5.76,3.52,7.86,8.85,6.08,15.35-1.68,6.1-5.43,10.92-9.67,15.39-5.69,6-12.57,10.44-19.57,14.71-14.23,8.67-29,16.21-44.93,21.29-7,2.24-14.2,3.85-21.66,3.63a24.29,24.29,0,0,1-9.87-2.2c-6-2.86-7.7-7.84-4.69-13.78a40.12,40.12,0,0,1,9.18-11.34A179.09,179.09,0,0,1,99.18,140c.36-.19.74-.35,1.11-.52,2.14-1,4.2-1.31,6.13.5a18.13,18.13,0,0,0,2.13,1.51c-.08.14-.11.27-.17.28-5.47,1.2-9.92,4.42-14.41,7.49a120.47,120.47,0,0,0-20.1,16.56,37,37,0,0,0-4.68,6.1c-1.8,2.93-1,4.29,2.41,4.74a48,48,0,0,0,20.29-2c20.94-6.31,39-17.53,54.9-32.44A26.58,26.58,0,0,0,151,137c2.07-3.34,1.37-6.58-2.14-8.38a28.18,28.18,0,0,0-8.33-2.56c-10.87-1.74-21.84-1.5-32.8-1a259.08,259.08,0,0,0-43.61,5.26A41.34,41.34,0,0,0,49,136.93a141.22,141.22,0,0,1-14.69,8.76c-3.53,1.87-7.41,2.53-11.31.78s-4.64-4.9-1.49-8c2.93-2.86,6.62-4.49,10.26-6.19a12.57,12.57,0,0,1,1.56-.66,35.93,35.93,0,0,0,16.28-11C55.15,114.36,60.58,108,66,101.74,66.48,101.21,66.84,100.59,67.46,99.71ZM95,81.82l.34.41c1.45-.82,2.94-1.6,4.35-2.49a131.4,131.4,0,0,0,25.69-22.07c4.51-4.87,8.82-9.94,12-15.8a30.6,30.6,0,0,0,2.71-7c.54-2.09-.84-3.14-2.88-2.46a8.63,8.63,0,0,0-2.62,1.28,77.15,77.15,0,0,0-6.77,5.58c-8.67,8.5-15.91,18.19-22.93,28.05C101.5,72.1,98.27,77,95,81.82Z"/></svg>